<?xml version="1.0" encoding="utf-8"?>
<!-- Generator: Adobe Illustrator 24.2.1, SVG Export Plug-In . SVG Version: 6.00 Build 0)  -->
<svg version="1.1" id="Layer_1" xmlns="http://www.w3.org/2000/svg" xmlns:xlink="http://www.w3.org/1999/xlink" x="0px" y="0px"
	 width="2596.4px" height="1000px" viewBox="0 0 2596.4 1000" style="enable-background:new 0 0 2596.4 1000;" xml:space="preserve"
	>
<style type="text/css">
	.st0{fill:#FFCA05;}
	.st1{fill:#00A3DF;}
	.st2{fill:#EE4023;}
	.st3{fill:#231F20;}
</style>
<path class="st0" d="M407.5,223.2c29.8-9.9,61.1-15,92.5-14.9c141.1,0,259,100.2,286,233.5l200.1-40.8
	C940.2,174.5,740.1,4.1,500.1,4.1c-53.5,0-106.6,8.6-157.3,25.5L407.5,223.2z"/>
<path class="st1" d="M171.4,871.6l135.3-153c-120.7-106.7-132-291.1-25.3-411.7c7.9-8.9,16.3-17.4,25.2-25.3l-135.3-153
	C68.7,219.5,4,352.2,4,500S68.8,780.7,171.4,871.6"/>
<path class="st2" d="M786,558.6c-27.1,133.2-144.8,233.2-285.9,233.2c-31.5,0.1-62.8-5-92.6-15l-64.8,193.7
	c50.8,16.9,103.9,25.5,157.4,25.4c239.8,0,439.9-170.2,486-396.4L786,558.6z"/>
<path class="st3" d="M1161.1,725.1c-7.8-12.9-14.7-26.3-20.8-40.1c-31.7-73.6-33.2-149.7-6.4-222.8
	c29.4-80.1,85.6-141.5,158.2-172.7c91.3-39.3,192.2-31.5,279.8,20.4c55.6,31.9,95,81.1,124.9,150.7c3.8,8.9,7.2,18.4,10.4,26.5
	L1161.1,725.1z M1343.4,407.6c-64.8,27.9-98.2,88.7-91.4,160l274.6-118.2C1479.4,393.9,1418,375.5,1343.4,407.6L1343.4,407.6z
	 M1560.9,664.7c-0.1,0-0.1,0.1-0.2,0.2l-5.7-3.8c-16.4,26.6-41.9,48.1-74.2,62.1c-61.4,26.7-118.3,19.8-159.1-16l-3.8,5.7
	c0-0.1-0.1-0.1-0.1-0.1L1248.2,817c17.3,12,35.9,22.2,55.4,30.3c77,32,155.7,30.5,233.3-3.2c56.1-24.3,100.1-61.4,130.2-108.4
	L1560.9,664.7z"/>
<path class="st3" d="M1898,136v579.5l90.1,36.5l-51.2,119.5l-99.4-41.5c-22.3-9.7-37.5-24.5-49-41.2c-11-17-19.2-40.4-19.2-71.8V136
	H1898z"/>
<path class="st3" d="M2131.3,567.8c0-47.4,20.5-92.5,56.3-123.7l-92.4-103.1c-125.3,110.7-137.1,302.1-26.3,427.4
	c8.1,9.2,16.8,17.9,26,26.1l92.3-103.2C2151.7,660.2,2131.3,615.2,2131.3,567.8z"/>
<path class="st3" d="M2295.6,732.3c-17.7,0-35.3-2.9-52.1-8.5L2199.4,855c31,10.4,63.4,15.7,96.1,15.7
	C2441.8,870.9,2564,767,2592.3,629l-135.7-27.7C2440.8,677.6,2373.5,732.3,2295.6,732.3z"/>
<path class="st3" d="M2296,265.2c-32.6-0.1-65,5.2-96,15.5l43.7,131.3c86.1-28.7,179.2,17.9,207.9,104.1c2.1,6.3,3.8,12.7,5.1,19.2
	l135.7-27.5C2564.5,369.5,2442.4,265.3,2296,265.2z"/>
</svg>
